<?xml version="1.0" encoding="UTF-8"?>
<svg width="300" height="70" version="1.1" viewBox="0 0 79.4 18.5" xmlns="http://www.w3.org/2000/svg" xmlns:cc="http://creativecommons.org/ns#" xmlns:dc="http://purl.org/dc/elements/1.1/" xmlns:rdf="http://www.w3.org/1999/02/22-rdf-syntax-ns#">
 <metadata>
  <rdf:RDF>
   <cc:Work rdf:about="">
    <dc:format>image/svg+xml</dc:format>
    <dc:type rdf:resource="http://purl.org/dc/dcmitype/StillImage"/>
    <dc:title/>
   </cc:Work>
  </rdf:RDF>
 </metadata>
 <g>
  <path id="txt-G-1" d="m9.88 10.3c-0.421 0.455-0.907-0.563-1.35-0.154-1.31 0.75-2.98 0.901-4.37 0.288-1.6-0.755-2.56-2.53-2.55-4.27-0.0494-1.64 0.661-3.35 2.07-4.25 1.53-0.975 3.67-0.777 5.03 0.424 0.25 0.297 0.811 0.631 0.622 1.06-0.282 0.303-0.592 0.965-1.05 0.858-0.34-0.376-0.641-0.796-1.09-1.06-0.845-0.567-2.03-0.455-2.79 0.215-1.57 1.35-1.51 4.13 0.129 5.4 0.936 0.743 2.28 0.577 3.29 0.0716 0.633-0.15 0.248-0.908 0.281-1.35 0.00156-0.452-0.202-1.05-0.00543-1.41 0.503-0.0716 1.02 0.0398 1.52-0.0408 0.396 0.389 0.0381 1.07 0.142 1.58 2.54e-4 0.884 0.0647 1.77 0.13 2.65z" fill="#0cf" stroke="#045" stroke-width=".265px"/>
  <path id="txt-i-1" d="m12.6 2.84c0.0437 0.403-0.286 0.789-0.695 0.788-0.386 0.0586-0.893-0.0262-1.04-0.44-0.171-0.414 0.0358-0.941 0.468-1.09 0.53-0.188 1.22-0.058 1.27 0.745zm-0.0456 1.77c-0.025 1.35-0.175 2.69-0.113 4.04 0.0107 0.632 0.036 1.26 0.0213 1.9-0.312 0.174-0.739 0.0287-1.1 0.0775-0.517 0.143-0.446-0.474-0.408-0.801-1.84e-4 -1.21 0.0861-2.42-0.038-3.63-0.0362-0.549-0.0876-1.1-0.07-1.65 0.354-0.157 0.737 0.0786 1.11-0.00549 0.313 0.0396 0.498-0.157 0.597 0.067z" fill="#0cf" stroke="#045" stroke-width=".265px"/>
  <path id="txt-l-1" d="m15.5 1.59c-0.163 2.37-0.173 4.75-0.115 7.12 0.0108 0.61 0.0213 1.22 0.0111 1.83-0.296 0.189-0.733 0.0315-1.08 0.0854-0.571 0.116-0.334-0.636-0.362-0.976-0.0192-1.79 0.0591-3.59-0.0275-5.38-0.0416-0.903-0.104-1.81-0.0857-2.71 0.336-0.175 0.719 0.0296 1.08-0.0348 0.303-0.0418 0.45 0.0128 0.588 0.0657z" fill="#0cf" stroke="#045" stroke-width=".265px"/>
  <path id="txt-l-2" d="m18.4 1.59c-0.196 2.7-0.154 5.41-0.101 8.12-0.0182 0.389 0.173 1.11-0.47 0.915-0.324-0.0819-0.975 0.219-0.992-0.266-3.52e-4 -2.32 0.0875-4.65-0.058-6.97-0.0265-0.609-0.0592-1.22-0.0427-1.83 0.46-0.171 0.97 0.0747 1.45-0.0809 0.116-0.00633 0.166 0.0803 0.217 0.112z" fill="#0cf" stroke="#045" stroke-width=".265px"/>
  <path id="txt-e-1" d="m25.2 7.13c0 0.321-0.139 0.536-0.416 0.645-0.187 0.0695-1.53 0.198-4.03 0.384 0.229 0.827 0.96 1.35 1.75 1.36 0.685 0 1.31-0.222 1.89-0.665 0.0694-0.0565 0.139-0.113 0.208-0.169 0.172 0.0903 0.248 0.344 0.312 0.469 0.152 0.291 0.228 0.447 0.228 0.469 0 0.0261-0.0347 0.076-0.104 0.15-0.638 0.678-1.46 1.02-2.45 1.02-2.04-0.0344-3.29-1.57-3.31-3.31 0.0675-1.81 1.41-3.35 3.08-3.37 0.816 0 1.5 0.3 2.04 0.899 0.499 0.674 0.792 1.45 0.8 2.12zm-1.55-0.397c0-0.36-0.143-0.68-0.429-0.958-0.649-0.572-1.49-0.467-2.02 0.0651-0.308 0.321-0.462 0.682-0.462 1.08 0 0.0912 0.0781 0.137 0.234 0.137 0.642 0 1.41-0.0651 2.3-0.195 0.252-0.0347 0.377-0.0782 0.377-0.13z" fill="#0cf" stroke="#045" stroke-width=".265px"/>
  <path id="txt-s-1" d="m28.3 10.2c-0.595 0.421-1.35 0.523-2.06 0.45-0.194-0.437-0.264-1.39 0.138-1.29 0.413 0.047 0.875 0.0301 1.23-0.215 0.295-0.219 0.32-0.71 0.0244-0.942-0.33-0.284-0.746-0.438-1.11-0.675-0.534-0.276-0.819-0.897-0.766-1.48 0.0092-0.639 0.386-1.24 0.948-1.54 0.454-0.258 0.987-0.362 1.51-0.343 0.21 0.177 0.191 0.516 0.293 0.761 0.051 0.184 0.189 0.526-0.146 0.486-0.316 0.0669-0.66 0.0327-0.954 0.182-0.282 0.125-0.385 0.538-0.15 0.757 0.309 0.313 0.739 0.459 1.09 0.713 1.43 0.748 1.17 2.43-0.038 3.14z" fill="#0cf" stroke="#045" stroke-width=".265px"/>
  <path id="txt-G-2" d="m41.5 10.3c-0.271 0.419-0.853-0.337-1.19-0.256-1.17 0.748-2.66 0.955-4 0.595-3.54-1.37-4.08-5.63-1.78-8.09 1.2-1.33 3.31-1.62 4.88-0.813 0.651 0.317 1.23 0.802 1.6 1.43-0.0654 0.43-0.538 0.729-0.812 1.07-0.369 0.314-0.607-0.492-0.923-0.649-0.574-0.596-1.45-0.907-2.26-0.691-2.85 1.1-2.51 4.99-0.508 6.16 0.916 0.454 2.03 0.266 2.91-0.171 0.711-0.567 0.17-1.95 0.2-2.74 0.394-0.144 0.885 0.039 1.31-0.0458 0.645-0.198 0.419 0.572 0.432 0.945-0.0404 1.09 0.0389 2.18 0.119 3.26z" fill="#0cf" stroke="#045" stroke-width=".265px"/>
  <path id="txt-o-1" d="m47.3 9.99c-0.923 0.889-2.43 1.03-3.54 0.423-2-1.3-2.26-3.96-0.633-5.41 0.9-0.889 2.37-1.07 3.49-0.521 2.1 1.19 2.43 3.71 0.681 5.51zm-0.277-2.52c0.0294-0.878-0.592-1.8-1.49-1.93-2.18-0.169-2.45 2.56-1.33 3.52 1.46 0.822 2.82-0.137 2.83-1.59z" fill="#0cf" stroke="#045" stroke-width=".265px"/>
  <path id="txt-n-1" d="m55 10.5c-0.24 0.324-0.707 0.0447-1.04 0.136-0.332 0.0937-0.602-0.135-0.48-0.471 0.0298-1.23 0.0594-2.46-0.0014-3.69-0.0301-0.36-0.206-0.751-0.577-0.865-0.395-0.155-0.845-0.0931-1.21 0.118-0.319 0.173-0.659 0.373-0.848 0.692-0.0808 0.281-0.0231 0.578-0.0393 0.867v3.19c-0.202 0.359-0.699 0.057-1.03 0.157-0.335 0.0895-0.609-0.146-0.482-0.483-0.0142-1.75 0.183-3.53-0.238-5.24-0.126-0.424 0.537-0.273 0.785-0.378 0.26 0.0167 0.799-0.323 0.808 0.14 0.0164 0.232 0.0576 0.848 0.371 0.475 0.555-0.442 1.18-0.888 1.92-0.893 0.653-0.0312 1.42 0.157 1.76 0.774 0.378 0.74 0.277 1.6 0.282 2.4-0.0265 1.07 0.0199 2.16 0.0188 3.07z" fill="#0cf" stroke="#045" stroke-width=".265px"/>
  <path id="txt-o-2" d="m61.1 9.99c-0.923 0.889-2.43 1.03-3.54 0.423-1.91-1.3-2.16-3.96-0.633-5.41 0.9-0.889 2.37-1.07 3.49-0.521 2.1 0.882 2.52 4.07 0.681 5.51zm-0.277-2.52c0.0294-0.878-0.592-1.8-1.49-1.93-0.642-0.113-1.33 0.167-1.69 0.711-0.612 0.845-0.464 2.15 0.36 2.81 1.46 0.822 2.82-0.137 2.83-1.59z" fill="#0cf" stroke="#045" stroke-width=".265px"/>
  <path id="txt-n-2" d="m68.8 10.5c-0.24 0.324-0.707 0.0447-1.04 0.136-0.332 0.0937-0.602-0.135-0.48-0.471 0.0301-1.23 0.0589-2.46-0.0023-3.69-0.03-0.36-0.206-0.751-0.577-0.865-0.786-0.181-1.66 0.182-2.05 0.809-0.0809 0.28-0.0232 0.577-0.0394 0.865v3.2c-0.202 0.359-0.699 0.057-1.03 0.157-0.335 0.0895-0.609-0.146-0.482-0.483-0.0142-1.75 0.183-3.53-0.238-5.24 0.132-0.469 1.57-0.547 1.59-0.238 0.0164 0.232 0.0576 0.848 0.371 0.475 0.555-0.442 1.18-0.888 1.92-0.893 0.653-0.0312 1.42 0.157 1.76 0.774 0.378 0.74 0.277 1.6 0.282 2.4-0.0247 1.02 0.0202 2.05 0.0198 3.07z" fill="#0cf" stroke="#045" stroke-width=".265px"/>
  <g id="txt-art" transform="matrix(1.01 0 0 .989 1.06 -1.59)" fill="#f60" aria-label="L'art rend les gens meilleurs">
   <path d="m5.14 16.4c-0.0371 0.224 0.0744 0.582-0.153 0.706-0.205 0.0304-0.414-0.017-0.621-0.0168-0.668-0.0444-1.34-0.0203-2.01-0.0087-0.266 0.0154-0.119-0.341-0.148-0.507 0.0194-0.879 0.0688-1.76 0.00994-2.64-0.0175-0.402-0.0405-0.804-0.0311-1.21 0.202-0.0961 0.43 0.0346 0.64-0.0415 0.288-0.0506 0.207 0.268 0.201 0.442-0.0255 0.8-0.0531 1.6-0.0451 2.4-0.00383 0.289-0.00983 0.579 0.03 0.866 0.206 0.107 0.447 0.0088 0.667 0.0381 0.465-0.0094 0.931-0.018 1.39-0.0918 0.0336-0.0051 0.0712 0.0234 0.0658 0.0595z"/>
   <path d="m5.9 14.2c-0.0313 0.0649-0.115 0.0538-0.175 0.0554-0.0555-0.0026-0.131 0.0044-0.16-0.054-0.0485-0.0828-0.0621-0.18-0.0828-0.273-0.0428-0.23-0.0716-0.463-0.0862-0.696-0.00554-0.129-0.00176-0.258-0.00288-0.387 0.018-0.074 0.11-0.0739 0.171-0.0839 0.145-0.0132 0.291-0.0072 0.435 0.0055 0.0569 0.0412 0.0334 0.125 0.0446 0.186 0.0223 0.424-0.046 0.884-0.143 1.25z"/>
   <path d="m9.64 14.3c-0.0936 0.548-0.164 1.11-0.112 1.66 0.0195 0.368 0.0434 0.737 0.0612 1.1-0.069 0.134-0.276 0.0492-0.406 0.0958-0.134 0.0406-0.287 0.0202-0.278-0.153-0.0144-0.118-0.0316-0.387-0.185-0.19-0.28 0.243-0.64 0.439-1.02 0.39-0.554-0.0403-1-0.479-1.19-0.982-0.151-0.43-0.128-0.918 0.0491-1.34 0.189-0.439 0.602-0.783 1.08-0.845 0.37-0.0635 0.773 0.0164 1.06 0.272 0.0937 0.0656 0.257 0.37 0.271 0.101 0.0109-0.14 0.0568-0.339 0.242-0.25 0.143 0.0349 0.32 0.0326 0.432 0.132zm-0.799 1.31c0.0103-0.402-0.241-0.832-0.645-0.935-0.307-0.0793-0.651 0.0343-0.842 0.289-0.335 0.394-0.296 1.05 0.0962 1.39 0.301 0.288 0.833 0.277 1.11-0.037 0.159-0.227 0.279-0.47 0.279-0.705z"/>
   <path d="m12 14.2c-0.0015 0.22-0.0113 0.442-0.0544 0.658-0.125 0.0969-0.287-0.0043-0.428 0.0136-0.19-0.0072-0.426 0.0261-0.525 0.211-0.0892 0.2-0.0638 0.426-0.0736 0.639-7.27e-4 0.435 0.0114 0.87 0.0337 1.3 0.0035 0.168-0.173 0.121-0.281 0.12-0.139-0.0013-0.278 9.1e-5 -0.417-0.0087-0.0914-0.132-0.0126-0.303-0.0392-0.452-0.0013-0.677 0.0574-1.36-0.0469-2.03-0.0126-0.141-0.0803-0.289-0.0772-0.422 0.116-0.093 0.283-0.0323 0.417-0.0835 0.117-0.0131 0.317-0.119 0.312 0.0781-0.0059 0.117 0.0276 0.314 0.171 0.179 0.257-0.204 0.595-0.314 0.923-0.259 0.0314 5e-3 0.0821 0.0136 0.0862 0.0535z"/>
   <path d="m14 16.5c-0.0381 0.163 0.0464 0.428-0.14 0.507-0.289 0.115-0.607 0.109-0.913 0.102-0.25-0.018-0.519-0.171-0.564-0.437-0.0562-0.268-0.0101-0.543-0.0186-0.814 0.0046-0.353 0.0251-0.707 0.0115-1.06-0.0688-0.193-0.445 0.0367-0.41-0.251-0.0423-0.171-0.0026-0.441 0.234-0.382 0.235 0.0133 0.161-0.255 0.164-0.403-0.0044-0.216-0.0253-0.434 0.0059-0.648 0.115-0.167 0.348 0.0172 0.514-0.0063 0.196-0.0166 0.262 0.154 0.211 0.314-0.0126 0.217-0.0411 0.434-0.0281 0.651 0.112 0.104 0.297 0.0291 0.441 0.0512 0.138-5.2e-4 0.276-0.0013 0.414 0.0022 0.0674 0.158-0.0355 0.332 0.0211 0.495 0.0068 0.182-0.195 0.134-0.311 0.126-0.181-0.0092-0.361-0.0266-0.542-0.0282-0.0704 0.199-0.0378 0.416-0.0509 0.623 3.48e-4 0.311-0.0162 0.624 0.0176 0.933 0.0251 0.173 0.198 0.273 0.363 0.252 0.189-0.0063 0.368-0.0867 0.558-0.0807 0.0189 0.0097 0.0209 0.0348 0.0212 0.0529z"/>
   <path d="m17.9 14.2c-0.0015 0.22-0.0113 0.442-0.0544 0.658-0.125 0.0969-0.287-0.0043-0.428 0.0136-0.19-0.0072-0.426 0.0261-0.525 0.211-0.0892 0.2-0.0638 0.426-0.0736 0.639-7.27e-4 0.435 0.0114 0.87 0.0337 1.3 0.0035 0.168-0.173 0.121-0.281 0.12-0.139-0.0013-0.278 9.1e-5 -0.417-0.0087-0.0914-0.132-0.0126-0.303-0.0392-0.452-0.0013-0.677 0.0574-1.36-0.0469-2.03-0.0126-0.141-0.0803-0.289-0.0772-0.422 0.116-0.093 0.283-0.0323 0.417-0.0835 0.117-0.0131 0.317-0.119 0.312 0.0781-0.0058 0.117 0.0276 0.314 0.171 0.179 0.257-0.204 0.595-0.314 0.923-0.259 0.0314 5e-3 0.0821 0.0136 0.0863 0.0535z"/>
   <path d="m20.9 15.4c0.021 0.205-0.179 0.352-0.37 0.339-0.588 0.0725-1.18 0.109-1.77 0.156 0.0692 0.41 0.503 0.677 0.902 0.654 0.352-0.0104 0.69-0.167 0.95-0.4 0.13 0.108 0.167 0.289 0.25 0.429-0.0342 0.16-0.214 0.24-0.331 0.339-0.475 0.3-1.1 0.313-1.61 0.111-0.461-0.196-0.791-0.65-0.85-1.15-0.0842-0.519 0.0541-1.08 0.419-1.47 0.281-0.316 0.707-0.498 1.13-0.465 0.417 0.0201 0.808 0.259 1.03 0.607 0.166 0.248 0.249 0.548 0.246 0.846zm-0.746-0.191c0.0023-0.421-0.467-0.775-0.869-0.629-0.302 0.1-0.535 0.399-0.535 0.72 0.118 0.13 0.305 0.0485 0.455 0.0478 0.342-0.0065 0.674-0.0596 0.949-0.139z"/>
   <path d="m24.1 17.1c-0.106 0.151-0.323 0.027-0.477 0.0623-0.147 0.0434-0.318-0.0256-0.258-0.201 0.0148-0.59 0.0273-1.18 0.0023-1.77-0.0126-0.178-0.0881-0.379-0.273-0.439-0.184-0.0717-0.395-0.0541-0.566 0.0425-0.157 0.0805-0.316 0.179-0.422 0.323-0.0568 0.15-0.0146 0.315-0.028 0.471-1.98e-4 0.507 0.0011 1.01-8.14e-4 1.52-0.123 0.136-0.331 0.0174-0.49 0.0558-0.149 0.041-0.296-0.0497-0.237-0.212-0.0079-0.75 0.0698-1.51-0.0562-2.25 0.0132-0.145-0.186-0.406 0.0451-0.434 0.194-0.0128 0.382-0.0641 0.574-0.0856 0.175 0.0143 0.036 0.318 0.172 0.416 0.288-0.22 0.588-0.478 0.968-0.499 0.285-0.0216 0.606 0.0317 0.813 0.245 0.233 0.274 0.225 0.656 0.228 0.996-0.0118 0.414-0.0101 0.828-3.9e-4 1.24 0.0029 0.18 0.0036 0.362 0.0045 0.516z"/>
   <path d="m27.7 12.8c-0.01 1-0.0959 2-0.0687 3 0.0061 0.445 0.0162 0.89 0.053 1.33-0.154 0.104-0.377-0.0074-0.557 0.0448-0.237 0.0492-0.104-0.304-0.17-0.433-0.23 0.243-0.52 0.455-0.863 0.493-0.476 0.0696-0.976-0.137-1.26-0.529-0.404-0.519-0.44-1.27-0.155-1.86 0.214-0.434 0.656-0.757 1.15-0.777 0.34-0.0362 0.689 0.0841 0.927 0.33 0.0789 0.0956 0.205 0.18 0.174 8.49e-4 5.3e-5 -0.519 5e-3 -1.04-0.0188-1.56 0.0598-0.159 0.332-0.045 0.477-0.101 0.088 0.0142 0.302-0.0797 0.313 0.0513zm-1.58 1.89c-0.348-0.0309-0.674 0.198-0.817 0.507-0.19 0.389-0.117 0.899 0.21 1.19 0.31 0.319 0.889 0.297 1.17-0.0539 0.454-0.608 0.12-1.59-0.56-1.65z"/>
   <path d="m30.7 12.8c-0.0653 0.992-0.0859 1.99-0.0624 2.98 5e-3 0.441 0.0194 0.883 0.0123 1.32-0.0314 0.0706-0.126 0.0296-0.189 0.0405-0.16-0.0029-0.322 0.0058-0.482-0.0045-0.0718-0.155-0.0112-0.358-0.0302-0.531 9.39e-4 -0.914 0.0343-1.83-0.0213-2.74-0.014-0.361-0.0385-0.724-0.0294-1.08 0.124-0.0829 0.305 8e-3 0.453-0.0178 0.137-0.0232 0.308 0.0284 0.348 0.0326z"/>
   <path d="m33.9 15.4c0.0137 0.165-0.117 0.32-0.283 0.328-0.616 0.0799-1.24 0.117-1.86 0.167 0.0512 0.336 0.366 0.575 0.684 0.64 0.423 0.0666 0.855-0.105 1.17-0.386 0.11 0.0704 0.141 0.244 0.217 0.356 0.111 0.137-0.0901 0.234-0.173 0.321-0.43 0.351-1.04 0.406-1.56 0.264-0.488-0.131-0.881-0.546-0.994-1.04-0.126-0.514-0.0479-1.09 0.284-1.52 0.251-0.343 0.653-0.582 1.08-0.589 0.396-0.0232 0.797 0.142 1.05 0.445 0.25 0.272 0.378 0.641 0.373 1.01zm-1.55-0.838c-0.33 0.077-0.597 0.396-0.596 0.738 0.107 0.143 0.358 0.0288 0.52 0.0503 0.281-0.0244 0.563-0.047 0.839-0.107-0.0018-0.39-0.437-0.746-0.762-0.681z"/>
   <path d="m35.3 17c-0.262 0.131-0.564 0.161-0.853 0.132-0.104-0.139-0.0299-0.326-0.0936-0.48-0.0124-0.186 0.185-0.142 0.303-0.13 0.182 2e-3 0.395-0.0287 0.514-0.182 0.0914-0.137 0.0454-0.344-0.101-0.423-0.243-0.186-0.584-0.26-0.749-0.537-0.226-0.384-0.0898-0.932 0.289-1.17 0.222-0.145 0.493-0.21 0.756-0.201 0.126 0.039 0.119 0.194 0.15 0.299 0.0404 0.0934 0.118 0.301-0.047 0.309-0.101 0.0012-0.205 0.0182-0.307 0.0295-0.139 0.0165-0.305 0.111-0.287 0.273 0.0146 0.169 0.189 0.24 0.313 0.32 0.227 0.124 0.477 0.257 0.589 0.504 0.196 0.482-0.0621 1.05-0.475 1.25z"/>
   <path d="m40.7 16.6c-0.0168 0.413-0.138 0.873-0.509 1.11-0.386 0.238-0.861 0.234-1.3 0.185-0.275-0.0404-0.559-0.114-0.784-0.284-0.0211-0.146 0.058-0.313 0.071-0.468 0.0343-0.198 0.243 0.0585 0.355 0.062 0.348 0.138 0.76 0.209 1.11 0.0482 0.221-0.0946 0.344-0.339 0.313-0.574-0.0137-0.0822 0.024-0.312-0.0776-0.147-0.339 0.379-0.928 0.438-1.37 0.23-0.494-0.232-0.778-0.788-0.752-1.32-0.0029-0.56 0.316-1.15 0.857-1.35 0.403-0.145 0.912-0.0876 1.2 0.253 0.0442 0.0859 0.189 0.215 0.154 0.028 0.0125-0.123-0.0956-0.459 0.127-0.384 0.197 0.0425 0.402 0.0612 0.593 0.125 0.0683 0.826 0.0153 1.76 0.0084 2.49zm-0.736-1.13c0.0113-0.37-0.211-0.78-0.6-0.849-0.282-0.0602-0.589 0.0696-0.736 0.319-0.261 0.409-0.175 1.04 0.256 1.3 0.3 0.174 0.717 0.076 0.907-0.216 0.119-0.16 0.175-0.36 0.174-0.558z"/>
   <path d="m43.9 15.4c0.0137 0.165-0.117 0.32-0.283 0.328-0.616 0.0799-1.24 0.117-1.86 0.167 0.0512 0.336 0.366 0.575 0.684 0.64 0.423 0.0666 0.855-0.105 1.17-0.386 0.11 0.0704 0.141 0.244 0.217 0.356 0.111 0.137-0.0901 0.234-0.173 0.321-0.43 0.351-1.04 0.406-1.56 0.264-0.488-0.131-0.881-0.546-0.994-1.04-0.126-0.514-0.0479-1.09 0.284-1.52 0.251-0.343 0.653-0.582 1.08-0.589 0.396-0.0232 0.797 0.142 1.05 0.445 0.25 0.272 0.378 0.641 0.373 1.01zm-1.55-0.838c-0.33 0.077-0.597 0.396-0.596 0.738 0.107 0.143 0.358 0.0288 0.52 0.0503 0.281-0.0244 0.563-0.047 0.839-0.107 0.0575-0.367-0.47-0.74-0.762-0.681z"/>
   <path d="m47.1 17.1c-0.106 0.151-0.323 0.027-0.477 0.0623-0.147 0.0434-0.318-0.0256-0.258-0.201 0.0148-0.59 0.0273-1.18 0.0023-1.77-0.0126-0.178-0.0881-0.379-0.273-0.439-0.184-0.0717-0.395-0.0541-0.566 0.0425-0.157 0.0805-0.316 0.179-0.422 0.323-0.0568 0.15-0.0146 0.315-0.028 0.471-1.98e-4 0.507 0.0011 1.01-8.14e-4 1.52-0.123 0.136-0.331 0.0174-0.49 0.0558-0.149 0.041-0.296-0.0497-0.237-0.212-0.0079-0.75 0.0698-1.51-0.0562-2.25 0.0132-0.145-0.186-0.406 0.0451-0.434 0.194-0.0128 0.382-0.0641 0.574-0.0856 0.175 0.0143 0.036 0.318 0.172 0.416 0.288-0.22 0.588-0.478 0.968-0.499 0.285-0.0216 0.606 0.0317 0.813 0.245 0.233 0.274 0.225 0.656 0.228 0.996-0.0118 0.414-0.0101 0.828-3.84e-4 1.24 0.0025 0.172 0.0045 0.344 0.0046 0.516z"/>
   <path d="m48.7 17c-0.277 0.168-0.614 0.208-0.932 0.176-0.098-0.113-0.0347-0.277-0.0779-0.41-0.0514-0.124 0.0271-0.264 0.169-0.206 0.205 0.0168 0.441 0.0074 0.602-0.138 0.119-0.126 0.0984-0.353-0.0522-0.445-0.205-0.162-0.467-0.237-0.661-0.415-0.271-0.265-0.274-0.714-0.0885-1.03 0.2-0.331 0.606-0.476 0.977-0.481 0.191-0.0179 0.161 0.245 0.22 0.367 0.0477 0.096 0.0628 0.273-0.0976 0.239-0.167 0.0318-0.365 7e-3 -0.5 0.13-0.119 0.113-0.0675 0.301 0.0642 0.378 0.23 0.175 0.533 0.26 0.703 0.507 0.265 0.473 0.122 1.06-0.326 1.33z"/>
   <path d="m56 17c-0.0915 0.264-0.435 0.0173-0.632 0.124-0.209-0.0781-0.0804-0.368-0.105-0.542 0.0142-0.502 0.0299-1.01-0.0095-1.51-0.0091-0.266-0.247-0.457-0.508-0.428-0.297 0.0054-0.577 0.199-0.72 0.453-0.0721 0.182-0.0298 0.385-0.0465 0.577-0.0045 0.454 0.0118 0.908 0.0246 1.36-0.141 0.201-0.428-0.0189-0.626 0.0886-0.22-0.0766-0.078-0.381-0.107-0.56 0.0086-0.496 0.0231-0.993-0.0067-1.49-0.015-0.251-0.235-0.448-0.486-0.431-0.292 0.0023-0.567 0.165-0.757 0.379-0.0956 0.177-0.0323 0.387-0.0514 0.579-0.0014 0.487 0.0086 0.974 0.0023 1.46-0.146 0.11-0.368 0.0235-0.545 0.0518-0.271 0.0363-0.144-0.344-0.163-0.509-0.0138-0.749 0.0536-1.51-0.121-2.25 0.0258-0.244 0.376-0.0863 0.53-0.209 0.254-0.103 0.221 0.193 0.26 0.35 0.0968 0.138 0.216-0.163 0.332-0.185 0.352-0.27 0.853-0.373 1.26-0.176 0.196 0.0982 0.355 0.276 0.414 0.489 0.323-0.421 0.882-0.689 1.41-0.559 0.308 0.0543 0.567 0.314 0.597 0.629 0.0937 0.508-0.0014 1.03 0.0352 1.54 0.0053 0.254 0.0124 0.507 0.0134 0.761z"/>
   <path d="m59.3 15.4c0.0137 0.165-0.117 0.32-0.283 0.328-0.616 0.0799-1.24 0.117-1.86 0.167 0.0512 0.336 0.366 0.575 0.684 0.64 0.423 0.0666 0.855-0.105 1.17-0.386 0.11 0.0704 0.141 0.244 0.217 0.356 0.111 0.137-0.0901 0.234-0.173 0.321-0.43 0.351-1.04 0.406-1.56 0.264-0.488-0.131-0.881-0.546-0.994-1.04-0.126-0.514-0.0479-1.09 0.284-1.52 0.251-0.343 0.653-0.582 1.08-0.589 0.396-0.0232 0.797 0.142 1.05 0.445 0.25 0.272 0.378 0.641 0.373 1.01zm-1.55-0.838c-0.33 0.077-0.597 0.396-0.596 0.738 0.107 0.143 0.358 0.0288 0.52 0.0503 0.281-0.0244 0.563-0.047 0.839-0.107 0.0575-0.367-0.47-0.74-0.762-0.681z"/>
   <path d="m60.3 13.7c-0.194 0.0404-0.453 0.0313-0.56-0.165-0.101-0.193-0.0222-0.464 0.185-0.549 0.236-0.122 0.596 0.0055 0.632 0.287 0.0223 0.184-0.123 0.325-0.256 0.426zm0.24 0.482c-0.0115 0.641-0.0834 1.28-0.0549 1.92 0.0052 0.311 0.0178 0.621 0.0106 0.932-0.149 0.0838-0.355 0.0135-0.525 0.0373-0.242 0.07-0.221-0.211-0.199-0.367-0.0012-0.578 0.0426-1.16-0.0162-1.74-0.0174-0.273-0.0442-0.546-0.0354-0.82 0.165-0.0754 0.344 0.0348 0.517-8.23e-4 0.142-0.0489 0.265 0.0248 0.303 0.0304z"/>
   <path d="m61.9 12.8c-0.0764 1.12-0.0842 2.24-0.0567 3.35 0.0056 0.317 0.0116 0.635 0.0066 0.952-0.141 0.0913-0.352 0.0149-0.52 0.0411-0.276 0.0575-0.164-0.305-0.177-0.469-0.0095-0.807 0.0251-1.62-0.0066-2.42-0.0184-0.49-0.0574-0.979-0.0479-1.47 0.162-0.084 0.346 0.0142 0.518-0.0167 0.126-0.0373 0.239 0.0248 0.283 0.0316z"/>
   <path d="m63.3 12.8c-0.0764 1.12-0.0842 2.24-0.0567 3.35 0.0056 0.317 0.0116 0.635 0.0066 0.952-0.141 0.0913-0.352 0.0149-0.52 0.0411-0.276 0.0575-0.164-0.305-0.177-0.469-0.0095-0.807 0.0251-1.62-0.0066-2.42-0.0184-0.49-0.0574-0.979-0.0479-1.47 0.162-0.084 0.346 0.0142 0.518-0.0167 0.126-0.0373 0.239 0.0248 0.283 0.0316z"/>
   <path d="m66.6 15.4c0.021 0.205-0.179 0.352-0.37 0.339-0.588 0.0725-1.18 0.109-1.77 0.156 0.0692 0.41 0.503 0.677 0.902 0.654 0.352-0.0104 0.69-0.167 0.95-0.4 0.13 0.108 0.167 0.289 0.25 0.429-0.0342 0.16-0.214 0.24-0.331 0.339-0.475 0.3-1.1 0.313-1.61 0.111-0.461-0.196-0.791-0.65-0.85-1.15-0.0842-0.519 0.0541-1.08 0.419-1.47 0.281-0.316 0.707-0.498 1.13-0.465 0.417 0.0201 0.808 0.259 1.03 0.607 0.166 0.248 0.249 0.548 0.246 0.846zm-1.61-0.821c-0.302 0.1-0.535 0.399-0.535 0.72 0.118 0.13 0.305 0.0485 0.455 0.0478 0.302-0.0085 0.606-0.0448 0.903-0.104 0.0411-0.392-0.516-0.761-0.823-0.664z"/>
   <path d="m70 14.3c-0.0097 0.684-0.06 1.37-0.026 2.05 0.0074 0.244 0.0202 0.488 0.0129 0.732-0.134 0.121-0.331 0.0293-0.492 0.0554-0.151 0.0519-0.285-0.0334-0.248-0.199 0.0184-0.0935-4.2e-4 -0.354-0.127-0.197-0.308 0.256-0.699 0.451-1.11 0.41-0.332-0.0133-0.684-0.189-0.799-0.518-0.13-0.341-0.121-0.713-0.131-1.07 5.58e-4 -0.439 0.0198-0.885 0.134-1.31 0.11-0.142 0.317-0.0275 0.469-0.0617 0.144-0.0446 0.283 0.0518 0.216 0.205-0.041 0.363-0.104 0.726-0.0872 1.09 0.0029 0.282-0.0118 0.581 0.115 0.841 0.179 0.278 0.587 0.325 0.862 0.168 0.147-0.0842 0.29-0.187 0.395-0.32 0.111-0.181 0.0595-0.4 0.0757-0.6 0.0066-0.43 2.19e-4 -0.86 0.0088-1.29 0.0486-0.151 0.245-0.0784 0.362-0.0955 0.211-0.0292 0.348 0.101 0.371 0.11z"/>
   <path d="m72.4 14.2c-0.0015 0.22-0.0113 0.442-0.0544 0.658-0.125 0.0969-0.287-0.0043-0.428 0.0136-0.19-0.0072-0.426 0.0261-0.525 0.211-0.0892 0.2-0.0638 0.426-0.0736 0.639-7.27e-4 0.435 0.0114 0.87 0.0337 1.3 0.0035 0.168-0.173 0.121-0.281 0.12-0.139-0.0013-0.278 9.1e-5 -0.417-0.0087-0.0914-0.132-0.0126-0.303-0.0392-0.452-0.0013-0.677 0.0574-1.36-0.0469-2.03-0.0126-0.141-0.0803-0.289-0.0772-0.422 0.116-0.093 0.283-0.0323 0.417-0.0835 0.117-0.0131 0.317-0.119 0.312 0.0781-0.0059 0.117 0.0276 0.314 0.171 0.179 0.257-0.204 0.595-0.314 0.923-0.259 0.0458-0.0033 0.0743 0.0461 0.0863 0.0535z"/>
   <path d="m73.6 17.1c-0.246 0.104-0.52 0.127-0.784 0.0999-0.098-0.113-0.0347-0.277-0.0779-0.41-0.0638-0.163 0.0725-0.268 0.227-0.202 0.218 0.0093 0.527-0.0159 0.608-0.259 0.0796-0.249-0.186-0.392-0.368-0.486-0.22-0.115-0.468-0.237-0.563-0.485-0.168-0.403 0.0074-0.922 0.404-1.12 0.217-0.122 0.471-0.17 0.718-0.161 0.119 0.123 0.103 0.313 0.168 0.463 0.0358 0.227-0.29 0.12-0.428 0.18-0.174 0.0079-0.336 0.203-0.234 0.367 0.226 0.267 0.628 0.323 0.818 0.63 0.288 0.526 0.0118 1.17-0.488 1.38z"/>
  </g>
 </g>
</svg>
